<?xml version="1.0" encoding="utf-8"?>
<!-- Generator: Adobe Illustrator 15.1.0, SVG Export Plug-In  -->
<!DOCTYPE svg PUBLIC "-//W3C//DTD SVG 1.0//EN" "http://www.w3.org/TR/2001/REC-SVG-20010904/DTD/svg10.dtd" [
	<!ENTITY ns_flows "http://ns.adobe.com/Flows/1.0/">
]>
<svg version="1.0"
	 xmlns="http://www.w3.org/2000/svg" xmlns:xlink="http://www.w3.org/1999/xlink" xmlns:a="http://ns.adobe.com/AdobeSVGViewerExtensions/3.0/"
	 x="0px" y="0px" width="89px" height="113px" viewBox="0 0 89 113" overflow="visible" enable-background="new 0 0 89 113"
	 xml:space="preserve">
<defs>
</defs>
<path fill="#B58F52" d="M63.3,72.6L19.9,62.1l2.1-8.7l43.4,10.5L63.3,72.6"/>
<path fill="#C7842E" d="M66.2,62.2L26.4,41.9l4.1-8l39.8,20.3L66.2,62.2"/>
<path fill="#E9822B" d="M72.3,51.5L38.7,22.1l5.9-6.7l33.7,29.4L72.3,51.5"/>
<path fill="#E4722A" d="M81.6,42L56.5,5l7.4-5L89,37L81.6,42"/>
<path fill="#9D846A" d="M62.6,83.5L18,81l0.5-8.9l44.6,2.4L62.6,83.5"/>
<path fill="#7A7C7C" d="M71.8,104.5v-37h8.9l0,46H0l0-46h8.9v37.1H71.8"/>
<path fill="#7A7C7C" d="M17.8,86.7h45v8.9h-45V86.7z"/>
</svg>
